<svg fill="none" height="50" viewBox="0 0 170 50" width="170" xmlns="http://www.w3.org/2000/svg">
  <path
    d="M164.041 50H5.95871C2.66645 50 0 47.3542 0 44.0875V5.91253C0 2.64579 2.66645 0 5.95871 0H164.041C167.334 0 170 2.64579 170 5.91253V44.0875C170 47.3542 167.334 50 164.041 50V50Z"
    fill="black"/>
  <path
    d="M168.884 44.0875C168.884 46.7332 166.735 48.8661 164.069 48.8661H5.98597C3.31952 48.8661 1.14282 46.7332 1.14282 44.0875V5.91252C1.14282 3.26673 3.31952 1.1069 5.98597 1.1069H164.069C166.735 1.1069 168.912 3.23973 168.912 5.91252L168.884 44.0875V44.0875Z"
    fill="black"/>
  <path
    d="M37.9562 24.73C37.9289 20.7074 41.2756 18.7365 41.4389 18.6555C39.5343 15.9017 36.5957 15.5238 35.5346 15.4968C33.0586 15.2268 30.6642 16.9817 29.3854 16.9817C28.1066 16.9817 26.1476 15.5238 24.0525 15.5778C21.3588 15.6318 18.8284 17.1706 17.4408 19.5734C14.5839 24.4871 16.7062 31.6955 19.4542 35.6372C20.8147 37.581 22.42 39.7408 24.5151 39.6598C26.5557 39.5788 27.3176 38.3639 29.7935 38.3639C32.2423 38.3639 32.9498 39.6598 35.0992 39.6058C37.3031 39.5788 38.6908 37.662 39.9968 35.6912C41.5749 33.4773 42.2007 31.2635 42.2279 31.1555C42.2279 31.1555 38.0106 29.5626 37.9562 24.73V24.73ZM33.9293 12.878C35.0176 11.5011 35.7795 9.66524 35.5618 7.77539C33.9565 7.85638 31.9702 8.8823 30.8275 10.2052C29.8208 11.3931 28.8957 13.3099 29.1405 15.1188C30.9363 15.2538 32.7865 14.2279 33.9293 12.878V12.878Z"
    fill="white"/>
  <path
    d="M164.041 0H79.3678L112.535 50H164.041C167.334 50 170 47.3542 170 44.0875V5.91253C170 2.64579 167.334 0 164.041 0Z"
    fill="url(#paint0_linear)"/>
  <path
    d="M67.6135 39.3899H64.7566L63.1785 34.5033H57.7367L56.2403 39.3899H53.465L58.8523 22.7592H62.199L67.6135 39.3899V39.3899ZM62.7159 32.4514L61.3011 28.1048C61.1378 27.6728 60.8657 26.6199 60.4576 24.973H60.4032C60.2399 25.675 59.9678 26.7279 59.6141 28.1048L58.2265 32.4514H62.7159V32.4514ZM81.4627 33.2344C81.4627 35.2862 80.8913 36.8791 79.7758 38.067C78.7691 39.1199 77.5447 39.6598 76.0482 39.6598C74.4429 39.6598 73.3001 39.0929 72.5927 37.959V44.2495H69.9262V31.3175C69.9262 30.0486 69.899 28.7257 69.8174 27.3758H72.1846L72.3478 29.2657H72.4022C73.3001 27.8348 74.6606 27.1058 76.4835 27.1058C77.8984 27.1058 79.0956 27.6728 80.0479 28.7797C81.0002 29.9406 81.4627 31.4255 81.4627 33.2344V33.2344ZM78.7419 33.3423C78.7419 32.1814 78.4698 31.2095 77.9528 30.4536C77.3814 29.6706 76.5924 29.2657 75.6129 29.2657C74.9598 29.2657 74.3613 29.4817 73.8171 29.9136C73.2729 30.3456 72.9192 30.9125 72.7559 31.6415C72.6743 31.9115 72.6471 32.1814 72.6199 32.4514V34.4493C72.6199 35.3132 72.892 36.0691 73.4362 36.6631C73.9803 37.257 74.6878 37.554 75.5312 37.554C76.538 37.554 77.327 37.176 77.8984 36.3931C78.4698 35.6372 78.7419 34.6112 78.7419 33.3423ZM95.3936 33.2344C95.3936 35.2862 94.8222 36.8791 93.7066 38.067C92.6999 39.1199 91.4755 39.6598 89.9791 39.6598C88.3737 39.6598 87.231 39.0929 86.5235 37.959V44.2495H83.8299V31.3175C83.8299 30.0486 83.8027 28.7257 83.7211 27.3758H86.0882L86.2515 29.2657H86.3059C87.2038 27.8348 88.5642 27.1058 90.3872 27.1058C91.802 27.1058 92.9992 27.6728 93.9515 28.7797C94.9038 29.9406 95.3936 31.4255 95.3936 33.2344V33.2344ZM92.6455 33.3423C92.6455 32.1814 92.3734 31.2095 91.8565 30.4536C91.2851 29.6706 90.496 29.2657 89.5165 29.2657C88.8635 29.2657 88.2649 29.4817 87.7207 29.9136C87.1766 30.3456 86.8228 30.9125 86.6596 31.6415C86.578 31.9655 86.5235 32.2354 86.5235 32.4514V34.4493C86.5235 35.3132 86.7956 36.0691 87.3398 36.6631C87.884 37.257 88.5914 37.554 89.4349 37.554C90.4416 37.554 91.2307 37.176 91.802 36.3931C92.3734 35.6372 92.6455 34.6112 92.6455 33.3423ZM110.93 34.7192C110.93 36.1231 110.44 37.284 109.433 38.175C108.345 39.1469 106.821 39.6328 104.862 39.6328C103.066 39.6328 101.624 39.2819 100.509 38.6069L101.135 36.3931C102.305 37.095 103.611 37.419 105.025 37.419C106.032 37.419 106.821 37.203 107.393 36.7441C107.964 36.2851 108.236 35.6912 108.236 34.9352C108.236 34.2603 107.991 33.6933 107.529 33.2344C107.066 32.7754 106.304 32.3434 105.216 31.9385C102.277 30.8585 100.808 29.2657 100.808 27.1598C100.808 25.783 101.325 24.676 102.359 23.8121C103.393 22.9482 104.781 22.5162 106.468 22.5162C107.991 22.5162 109.27 22.7862 110.277 23.2992L109.597 25.459C108.644 24.946 107.583 24.703 106.386 24.703C105.434 24.703 104.699 24.946 104.155 25.405C103.719 25.8099 103.475 26.3229 103.475 26.9169C103.475 27.5648 103.719 28.1318 104.236 28.5367C104.672 28.9417 105.488 29.3467 106.685 29.8326C108.127 30.3996 109.188 31.0745 109.869 31.8575C110.603 32.6134 110.93 33.5583 110.93 34.7192V34.7192ZM119.827 29.4007H116.861V35.2322C116.861 36.7171 117.378 37.446 118.439 37.446C118.929 37.446 119.31 37.419 119.637 37.311L119.718 39.3359C119.201 39.5248 118.494 39.6328 117.623 39.6328C116.562 39.6328 115.746 39.3089 115.147 38.6609C114.549 38.013 114.249 36.9331 114.249 35.4212V29.3737H112.481V27.3758H114.249V25.189L116.888 24.4061V27.4028H119.854L119.827 29.4007V29.4007ZM133.159 33.2884C133.159 35.1242 132.615 36.6361 131.554 37.824C130.438 39.0389 128.969 39.6598 127.119 39.6598C125.35 39.6598 123.936 39.0659 122.874 37.905C121.813 36.7441 121.296 35.2592 121.296 33.4773C121.296 31.6145 121.84 30.1026 122.929 28.9147C124.017 27.7268 125.486 27.1328 127.309 27.1328C129.078 27.1328 130.52 27.7268 131.581 28.8877C132.642 30.0216 133.159 31.5065 133.159 33.2884ZM130.384 33.3423C130.384 32.2354 130.139 31.2905 129.677 30.5076C129.105 29.5626 128.316 29.0767 127.255 29.0767C126.167 29.0767 125.35 29.5626 124.779 30.5076C124.289 31.2905 124.072 32.2624 124.072 33.3963C124.072 34.5033 124.316 35.4482 124.779 36.2311C125.35 37.176 126.167 37.662 127.228 37.662C128.262 37.662 129.051 37.176 129.649 36.2041C130.139 35.3942 130.384 34.4493 130.384 33.3423V33.3423ZM141.893 29.7246C141.621 29.6706 141.322 29.6436 141.05 29.6436C140.098 29.6436 139.363 29.9946 138.873 30.6966C138.438 31.3175 138.193 32.1004 138.193 33.0724V39.3629H135.499V31.1555C135.499 29.8866 135.472 28.6447 135.418 27.3758H137.758L137.866 29.6706H137.948C138.22 28.8877 138.683 28.2398 139.281 27.7808C139.853 27.3758 140.533 27.1328 141.213 27.1328C141.458 27.1328 141.676 27.1598 141.893 27.1868V29.7246V29.7246ZM153.92 32.8294C153.92 33.2344 153.892 33.6393 153.811 34.0443H145.757C145.784 35.2322 146.165 36.1501 146.927 36.7711C147.607 37.338 148.478 37.608 149.566 37.608C150.763 37.608 151.852 37.419 152.831 37.041L153.239 38.8769C152.097 39.3629 150.736 39.6058 149.185 39.6058C147.308 39.6058 145.839 39.0659 144.777 37.959C143.716 36.8521 143.172 35.3942 143.172 33.5583C143.172 31.7495 143.662 30.2376 144.669 29.0497C145.702 27.7538 147.117 27.1328 148.886 27.1328C150.627 27.1328 151.96 27.7808 152.831 29.0497C153.566 30.0756 153.92 31.3175 153.92 32.8294ZM151.362 32.1274C151.389 31.3445 151.199 30.6426 150.845 30.0756C150.382 29.3197 149.675 28.9687 148.695 28.9687C147.825 28.9687 147.09 29.3197 146.546 30.0486C146.111 30.6156 145.839 31.3175 145.757 32.1274H151.362V32.1274ZM56.9749 16.8737C56.2403 16.8737 55.5872 16.8467 55.0431 16.7657V8.72032C55.8049 8.61232 56.5668 8.55833 57.3286 8.55833C60.4032 8.55833 61.818 10.0702 61.818 12.527C61.818 15.3348 60.1311 16.8737 56.9749 16.8737V16.8737ZM57.4102 9.58425C57.0021 9.58425 56.6484 9.61124 56.3491 9.66524V15.7668C56.5123 15.7938 56.8116 15.7938 57.247 15.7938C59.2604 15.7938 60.4032 14.6598 60.4032 12.527C60.4032 10.6372 59.3693 9.58425 57.4102 9.58425ZM66.2258 16.9277C64.4845 16.9277 63.3689 15.6318 63.3689 13.9039C63.3689 12.095 64.5117 10.7991 66.3347 10.7991C68.0488 10.7991 69.1916 12.0141 69.1916 13.8229C69.1916 15.6318 67.9944 16.9277 66.2258 16.9277ZM66.2803 11.7441C65.328 11.7441 64.7022 12.635 64.7022 13.8769C64.7022 15.0918 65.328 15.9827 66.2531 15.9827C67.1782 15.9827 67.804 15.0378 67.804 13.8499C67.8312 12.635 67.2054 11.7441 66.2803 11.7441V11.7441ZM79.0956 10.9071L77.2454 16.7927H76.021L75.2591 14.2279C75.0687 13.6069 74.9054 12.959 74.7694 12.311H74.7422C74.6333 12.959 74.4701 13.6069 74.2524 14.2279L73.4362 16.7927H72.2118L70.4704 10.9071H71.8308L72.5111 13.7149C72.6743 14.3899 72.8104 15.0108 72.9192 15.6048H72.9464C73.0552 15.1188 73.1913 14.4979 73.4362 13.7149L74.2796 10.9071H75.368L76.1842 13.6609C76.3747 14.3359 76.5379 14.9838 76.674 15.6048H76.7012C76.7828 15.0108 76.9189 14.3629 77.1093 13.6609L77.844 10.9071H79.0956V10.9071ZM85.925 16.7927H84.6189V13.4179C84.6189 12.365 84.2108 11.8521 83.4218 11.8521C82.6327 11.8521 82.0885 12.527 82.0885 13.283V16.7927H80.7553V12.581C80.7553 12.068 80.7553 11.5011 80.7009 10.9071H81.8709L81.9253 11.8251H81.9525C82.3062 11.2041 83.0408 10.7991 83.8299 10.7991C85.0815 10.7991 85.8978 11.7441 85.8978 13.283L85.925 16.7927V16.7927ZM89.5709 16.7927H88.2377V8.18036H89.5709V16.7927ZM94.3869 16.9277C92.6455 16.9277 91.5299 15.6318 91.5299 13.9039C91.5299 12.095 92.6727 10.7991 94.4957 10.7991C96.2098 10.7991 97.3526 12.0141 97.3526 13.8229C97.3526 15.6318 96.1554 16.9277 94.3869 16.9277ZM94.4413 11.7441C93.489 11.7441 92.8632 12.635 92.8632 13.8769C92.8632 15.0918 93.489 15.9827 94.4141 15.9827C95.3392 15.9827 95.965 15.0378 95.965 13.8499C95.965 12.635 95.3664 11.7441 94.4413 11.7441V11.7441ZM102.549 16.7927L102.441 16.1177H102.413C102.005 16.6577 101.434 16.9277 100.672 16.9277C99.6109 16.9277 98.8491 16.1987 98.8491 15.1998C98.8491 13.7419 100.128 12.986 102.332 12.986V12.878C102.332 12.095 101.924 11.7171 101.107 11.7171C100.509 11.7171 100.019 11.8521 99.5565 12.149L99.2844 11.2851C99.8286 10.9341 100.509 10.7722 101.325 10.7722C102.876 10.7722 103.665 11.5821 103.665 13.202V15.3618C103.665 15.9557 103.692 16.4147 103.747 16.7657L102.549 16.7927V16.7927ZM102.359 13.8499C100.89 13.8499 100.155 14.2009 100.155 15.0378C100.155 15.6588 100.536 15.9557 101.053 15.9557C101.733 15.9557 102.359 15.4428 102.359 14.7678V13.8499ZM110.059 16.7927L110.005 15.8477H109.977C109.597 16.5497 108.971 16.9277 108.073 16.9277C106.631 16.9277 105.57 15.6858 105.57 13.9309C105.57 12.095 106.658 10.7991 108.182 10.7991C108.971 10.7991 109.542 11.0691 109.869 11.6091H109.896V8.18036H111.229V15.1998C111.229 15.7668 111.256 16.3067 111.283 16.7927H110.059V16.7927ZM109.869 13.3369C109.869 12.5 109.324 11.7981 108.481 11.7981C107.501 11.7981 106.903 12.662 106.903 13.8769C106.903 15.0648 107.529 15.8747 108.454 15.8747C109.297 15.8747 109.869 15.1458 109.869 14.3089V13.3369V13.3369ZM119.582 16.9277C117.841 16.9277 116.725 15.6318 116.725 13.9039C116.725 12.095 117.868 10.7991 119.691 10.7991C121.405 10.7991 122.548 12.0141 122.548 13.8229C122.548 15.6318 121.351 16.9277 119.582 16.9277ZM119.637 11.7441C118.684 11.7441 118.086 12.635 118.086 13.8769C118.086 15.0918 118.711 15.9827 119.637 15.9827C120.562 15.9827 121.187 15.0378 121.187 13.8499C121.16 12.635 120.562 11.7441 119.637 11.7441ZM129.649 16.7927H128.316V13.4179C128.316 12.365 127.908 11.8521 127.119 11.8521C126.33 11.8521 125.813 12.527 125.813 13.283V16.7927H124.48V12.581C124.48 12.068 124.48 11.5011 124.425 10.9071H125.595L125.65 11.8251H125.677C126.031 11.2041 126.765 10.7991 127.554 10.7991C128.806 10.7991 129.622 11.7441 129.622 13.283V16.7927H129.649ZM138.519 11.8791H137.077V14.7408C137.077 15.4698 137.322 15.8207 137.839 15.8207C138.084 15.8207 138.275 15.7938 138.438 15.7668L138.465 16.7657C138.22 16.8737 137.866 16.9007 137.431 16.9007C136.397 16.9007 135.771 16.3337 135.771 14.8488V11.8791H134.901V10.9071H135.771V9.82723L137.077 9.44926V10.9071H138.519V11.8791ZM145.512 16.7927H144.206V13.4449C144.206 12.392 143.798 11.8521 143.009 11.8521C142.329 11.8521 141.676 12.311 141.676 13.256V16.8197H140.37V8.18036H141.676V11.7171H141.703C142.111 11.0691 142.71 10.7452 143.499 10.7452C144.75 10.7452 145.512 11.7171 145.512 13.256V16.7927V16.7927ZM152.668 14.1739H148.695C148.723 15.2808 149.457 15.9287 150.573 15.9287C151.171 15.9287 151.688 15.8207 152.178 15.6588L152.396 16.5767C151.824 16.8197 151.171 16.9277 150.41 16.9277C148.559 16.9277 147.444 15.7668 147.444 13.9579C147.444 12.149 148.559 10.7991 150.246 10.7991C151.77 10.7991 152.722 11.9061 152.722 13.6069C152.722 13.7689 152.722 13.9579 152.668 14.1739ZM151.471 13.229C151.471 12.311 151.008 11.6631 150.165 11.6631C149.403 11.6631 148.804 12.311 148.723 13.229H151.471V13.229Z"
    fill="white"/>
  <defs>
    <linearGradient gradientUnits="userSpaceOnUse" id="paint0_linear" x1="124.69" x2="124.69" y1="50.1179"
                    y2="-671.293">
      <stop stop-color="#1A1A1A" stop-opacity="0.1"/>
      <stop offset="0.123" stop-color="#212121" stop-opacity="0.151"/>
      <stop offset="0.308" stop-color="#353535" stop-opacity="0.227"/>
      <stop offset="0.532" stop-color="#575757" stop-opacity="0.318"/>
      <stop offset="0.783" stop-color="#858585" stop-opacity="0.421"/>
      <stop offset="1" stop-color="#B3B3B3" stop-opacity="0.51"/>
    </linearGradient>
  </defs>
</svg>
