<svg fill="none" height="55" viewBox="0 0 170 55" width="170" xmlns="http://www.w3.org/2000/svg">
  <g clip-path="url(#clip0)">
    <path
      d="M170 47.5668C170 51.6713 166.636 55 162.487 55H7.51486C3.36523 55.0003 0 51.6716 0 47.5668V7.43257C0 3.32838 3.36523 0 7.51486 0H162.486C166.636 0 170 3.32838 170 7.43257V47.5668H170Z"
      fill="black"/>
    <path d="M12.7515 10.5887V47.8347L31.7411 29.2119L12.7515 10.5887Z" fill="url(#paint0_linear)"/>
    <path d="M36.8413 24.2096L29.1758 19.8325L12.7515 10.4532V10.5887L31.741 29.2118L36.8413 24.2096Z"
          fill="url(#paint1_linear)"/>
    <path d="M12.7515 47.8347V47.9702L29.1758 38.5906L36.8409 34.2135L31.741 29.2119L12.7515 47.8347Z"
          fill="url(#paint2_linear)"/>
    <path d="M36.8411 24.2096L31.741 29.2119L36.8408 34.2135L45.6009 29.2115L36.8411 24.2096Z"
          fill="url(#paint3_linear)"/>
    <path
      d="M132.302 36.4926C131.589 36.4926 130.938 36.3624 130.349 36.1024C129.759 35.842 129.264 35.4416 128.864 34.9018H128.745C128.824 35.5343 128.864 36.1339 128.864 36.7003V41.1576H127.207V25.463H128.555L128.785 26.9456H128.864C129.291 26.3522 129.788 25.9246 130.354 25.6609C130.92 25.3973 131.569 25.2655 132.302 25.2655C133.754 25.2655 134.875 25.7566 135.664 26.7382C136.454 27.7198 136.848 29.0971 136.848 30.869C136.848 32.6481 136.447 34.0297 135.645 35.0156C134.842 36.0004 133.728 36.4926 132.302 36.4926V36.4926ZM132.062 26.659C130.943 26.659 130.134 26.9657 129.634 27.5781C129.135 28.1908 128.878 29.1662 128.864 30.5038V30.869C128.864 32.3913 129.121 33.4801 129.634 34.1359C130.147 34.7918 130.97 35.1188 132.102 35.1188C133.049 35.1188 133.79 34.7405 134.326 33.9827C134.862 33.2253 135.13 32.181 135.13 30.8493C135.13 29.4992 134.862 28.4624 134.326 27.7411C133.79 27.0192 133.035 26.659 132.062 26.659V26.659ZM140.689 36.2947H139.031V20.9167H140.689V36.2947ZM150.226 36.2947L149.896 34.7529H149.816C149.27 35.4321 148.725 35.892 148.182 36.1316C147.64 36.3726 146.961 36.4926 146.149 36.4926C145.063 36.4926 144.212 36.2158 143.596 35.6625C142.979 35.1093 142.672 34.3223 142.672 33.3006C142.672 31.1136 144.44 29.967 147.978 29.8611L149.837 29.8016V29.1297C149.837 28.2796 149.652 27.6517 149.282 27.247C148.912 26.8414 148.32 26.6389 147.508 26.6389C146.595 26.6389 145.563 26.9157 144.411 27.4689L143.901 26.2139C144.441 25.9239 145.031 25.6968 145.675 25.5321C146.318 25.3674 146.962 25.2849 147.608 25.2849C148.914 25.2849 149.881 25.5712 150.511 26.1445C151.14 26.7178 151.455 27.6369 151.455 28.9022V36.2944H150.226V36.2947H150.226ZM146.479 35.1388C147.511 35.1388 148.322 34.8587 148.912 34.2989C149.501 33.7391 149.796 32.9548 149.796 31.9462V30.9679L148.137 31.0366C146.818 31.0836 145.868 31.2855 145.284 31.6454C144.701 32.0044 144.41 32.5629 144.41 33.3206C144.41 33.9133 144.591 34.365 144.955 34.674C145.318 34.984 145.825 35.1388 146.479 35.1388ZM152.418 25.463H154.196L156.595 31.6402C157.121 33.0504 157.447 34.0682 157.574 34.6944H157.654C157.741 34.3578 157.923 33.7835 158.199 32.9689C158.475 32.155 159.38 29.6536 160.911 25.463H162.691L157.984 37.7973C157.518 39.0162 156.973 39.8811 156.35 40.3926C155.727 40.9028 154.962 41.1576 154.057 41.1576C153.551 41.1576 153.051 41.1017 152.558 40.9899V39.6756C152.924 39.7545 153.334 39.7943 153.787 39.7943C154.926 39.7943 155.738 39.1618 156.225 37.8966L156.834 36.3551L152.418 25.463V25.463ZM101.575 26.4696C102.101 26.9005 103.201 27.8059 103.201 29.5288C103.201 31.2043 102.239 31.9988 101.276 32.7454C100.979 33.0396 100.635 33.3578 100.635 33.8568C100.635 34.3541 100.978 34.6264 101.231 34.8305L102.056 35.4636C103.064 36.3022 103.979 37.0731 103.979 38.6368C103.979 40.7663 101.895 42.9179 97.9554 42.9179C94.6334 42.9179 93.0308 41.3551 93.0308 39.6776C93.0308 38.8623 93.4412 37.7075 94.7946 36.9136C96.2138 36.0527 98.1393 35.9406 99.1696 35.8709C98.8479 35.4636 98.4823 35.033 98.4823 34.3318C98.4823 33.9472 98.5973 33.7204 98.7113 33.4472C98.4583 33.4702 98.2067 33.4929 97.9774 33.4929C95.5501 33.4929 94.1758 31.703 94.1758 29.9367C94.1758 28.8943 94.6574 27.7382 95.6412 26.9009C96.9474 25.8362 98.5049 25.6544 99.743 25.6544H104.461L102.994 26.4699H101.575V26.4696H101.575ZM99.9479 36.5294C99.7648 36.5057 99.6498 36.5057 99.4218 36.5057C99.2158 36.5057 97.977 36.5521 97.0162 36.8699C96.5123 37.0498 95.0458 37.5935 95.0458 39.2029C95.0458 40.8107 96.6273 41.9679 99.0785 41.9679C101.276 41.9679 102.446 40.9235 102.446 39.5201C102.446 38.3624 101.69 37.7532 99.9479 36.5294ZM100.613 32.224C101.139 31.7023 101.184 30.9781 101.184 30.5698C101.184 28.939 100.2 26.4016 98.2988 26.4016C97.7025 26.4016 97.0617 26.6958 96.6951 27.1494C96.3062 27.6251 96.1905 28.2362 96.1905 28.8259C96.1905 30.3437 97.0839 32.8588 99.0549 32.8588C99.6276 32.8588 100.245 32.5869 100.613 32.224V32.224ZM87.1538 36.1668C83.518 36.1668 81.574 33.3617 81.574 30.8279C81.574 27.8644 84.0206 25.3322 87.4982 25.3322C90.8584 25.3322 92.9626 27.9324 92.9626 30.6701C92.9629 33.3381 90.8826 36.1668 87.1538 36.1668ZM90.0122 34.3348C90.5619 33.6103 90.6992 32.7059 90.6992 31.823C90.6992 29.8318 89.7386 26.0324 86.9025 26.0324C86.1481 26.0324 85.3936 26.327 84.8449 26.803C83.9527 27.5935 83.7919 28.5893 83.7919 29.563C83.7919 31.8006 84.9126 35.4866 87.6806 35.4866C88.5723 35.4866 89.4873 35.0577 90.0122 34.3348V34.3348ZM74.7581 36.1668C71.1216 36.1668 69.1773 33.3617 69.1773 30.8279C69.1773 27.8644 71.6248 25.3322 75.1014 25.3322C78.4627 25.3322 80.5665 27.9324 80.5665 30.6701C80.5669 33.3381 78.4863 36.1668 74.7581 36.1668ZM77.6171 34.3348C78.1659 33.6103 78.3035 32.7059 78.3035 31.823C78.3035 29.8318 77.3422 26.0324 74.5061 26.0324C73.752 26.0324 72.9969 26.327 72.4485 26.803C71.5564 27.5935 71.3965 28.5893 71.3965 29.563C71.3965 31.8006 72.5166 35.4866 75.2849 35.4866C76.177 35.4866 77.0914 35.0577 77.6171 34.3348V34.3348ZM67.4304 35.8121L64.1419 36.5626C62.8078 36.7677 61.6126 36.9482 60.3486 36.9482C54.0017 36.9482 51.5884 32.3315 51.5884 28.7155C51.5884 24.3043 55.0138 20.2119 60.8777 20.2119C62.1198 20.2119 63.3144 20.3934 64.3949 20.6892C66.1192 21.1669 66.9239 21.7576 67.4301 22.0992L65.5209 23.8957L64.7166 24.0768L65.2913 23.1669C64.5099 22.417 63.083 21.0301 60.3709 21.0301C56.7378 21.0301 54.0011 23.7602 54.0011 27.7395C54.0011 32.0136 57.1287 36.0389 62.1401 36.0389C63.6131 36.0389 64.3703 35.7437 65.0606 35.4702V31.8098L61.5893 31.9916L63.428 31.0127H68.3029L67.7056 31.581C67.5434 31.7181 67.5212 31.7641 67.4753 31.9443C67.4514 32.1494 67.4297 32.8095 67.4297 33.0367V35.8121H67.4304V35.8121Z"
      fill="#F9F9F9"/>
    <path
      d="M108.842 35.1573C108.083 35.0889 107.924 34.9531 107.924 34.0652V21.1942C107.929 21.1452 107.932 21.0949 107.936 21.0475C108.029 20.252 108.259 20.1156 108.972 19.7057H105.683L103.958 20.5246H105.716V20.5347L105.715 20.5265V34.5662C105.715 35.0202 105.624 35.0892 105.095 35.7707H109.165L110.016 35.2717C109.625 35.2247 109.234 35.2026 108.842 35.1573V35.1573ZM118.198 35.3663C117.948 35.5021 117.697 35.6609 117.447 35.773C116.692 36.1116 115.916 36.2023 115.229 36.2023C114.5 36.2023 113.358 36.1556 112.192 35.321C110.572 34.1908 109.864 32.2487 109.864 30.5554C109.864 27.0554 112.741 25.3391 115.093 25.3391C115.915 25.3391 116.761 25.5419 117.446 25.9719C118.587 26.7158 118.884 27.6869 119.043 28.2066L113.678 30.3529L111.919 30.4883C112.489 33.3565 114.453 35.0264 116.623 35.0264C117.787 35.0264 118.632 34.6208 119.409 34.2375L118.198 35.3663V35.3663ZM116.053 28.6353C116.486 28.4778 116.714 28.3417 116.714 28.0258C116.714 27.1231 115.687 26.0837 114.453 26.0837C113.538 26.0837 111.827 26.7842 111.827 29.2227C111.827 29.6067 111.873 30.013 111.897 30.4209L116.053 28.6353V28.6353ZM120.402 25.4936V26.9837H120.219V25.4936H119.721V25.3391H120.901V25.4936H120.402V25.4936ZM122.456 26.9837V25.4798H122.448L121.984 26.9837H121.841L121.373 25.4798H121.367V26.9837H121.201V25.3391H121.486L121.909 26.6685H121.915L122.332 25.3391H122.621V26.9837H122.456V26.9837Z"
      fill="#F9F9F9"/>
    <path
      d="M56.1552 15.7839H55.0125C55.0125 15.6284 54.9042 15.1882 54.6875 14.4631H53.0379C52.8142 15.1764 52.7022 15.6165 52.7022 15.7839H51.6277C51.6277 15.6922 51.9055 14.9387 52.4613 13.5239C53.017 12.1091 53.2948 11.3296 53.2948 11.1863H54.6446C54.6446 11.3204 54.8962 12.0883 55.3997 13.4904C55.9033 14.8924 56.1552 15.6567 56.1552 15.7839V15.7839ZM54.5056 13.7885C54.0985 12.5739 53.8951 11.9171 53.8951 11.8181H53.8379C53.8379 11.9098 53.6272 12.5666 53.2061 13.7885H54.5056V13.7885ZM60.7592 15.7839H59.8774C59.8774 15.6873 59.5501 15.1777 58.8956 14.255C58.2103 13.2826 57.8197 12.6179 57.7247 12.26H57.6675C57.727 12.7754 57.757 13.2415 57.757 13.6584C57.757 14.2399 57.7736 14.9486 57.8068 15.7843H56.9284C56.9639 15.0545 56.9819 14.253 56.9819 13.3796C56.9819 12.5204 56.9639 11.7892 56.9284 11.1867H57.9886C57.9886 11.3116 58.2824 11.8096 58.8704 12.6804C59.4962 13.6055 59.8558 14.233 59.9486 14.5627H60.0021C59.945 14.0377 59.9164 13.567 59.9164 13.1502C59.9164 12.5125 59.8997 11.8576 59.8665 11.1867H60.7592C60.7256 11.7705 60.7094 12.5016 60.7094 13.3796C60.709 14.2642 60.7256 15.0656 60.7592 15.7839V15.7839ZM65.9338 13.326C65.9338 13.9946 65.7172 14.5785 65.2841 15.0775C64.8506 15.5768 64.2437 15.826 63.463 15.826C63.1107 15.826 62.6251 15.8118 62.0062 15.7836C62.0371 15.0726 62.0528 14.2708 62.0528 13.379C62.0528 12.5223 62.0371 11.7912 62.0062 11.186H62.6311C62.7335 11.186 62.8857 11.1824 63.0881 11.1755C63.2902 11.1686 63.4225 11.165 63.4843 11.165C64.3435 11.165 64.9663 11.377 65.3535 11.8007C65.7404 12.2244 65.9338 12.7327 65.9338 13.326V13.326ZM64.9593 13.4778C64.9593 13.0258 64.826 12.6452 64.5595 12.3352C64.2929 12.0259 63.8857 11.8711 63.3383 11.8711C63.236 11.8711 63.0957 11.8816 62.9169 11.9029C62.9405 12.374 62.9525 12.8658 62.9525 13.3789C62.9525 13.9417 62.9644 14.4996 62.988 15.0528C63.1407 15.0832 63.2962 15.0987 63.452 15.0988C63.9638 15.0988 64.3427 14.9414 64.589 14.6271C64.8354 14.3128 64.9593 13.9298 64.9593 13.4778V13.4778ZM70.7057 15.7839H69.6487C69.3725 14.9506 69.1608 14.4361 69.0133 14.2409C68.8657 14.0453 68.6277 13.9476 68.2993 13.9476C68.1611 13.9476 68.0291 13.9489 67.9031 13.9512C67.9031 14.5565 67.9138 15.1672 67.9354 15.7839H66.9429C66.9738 15.0729 66.9895 14.2711 66.9895 13.3793C66.9895 12.5226 66.9738 11.7915 66.9429 11.1863H67.5604C67.6319 11.1863 67.7812 11.1827 68.0085 11.1758C68.2358 11.1689 68.4459 11.1653 68.6387 11.1653C69.7312 11.1653 70.2776 11.5347 70.2776 12.2741C70.2776 12.8602 69.9658 13.2685 69.3423 13.4996V13.5525C69.5826 13.6182 69.7933 13.804 69.9741 14.1084C70.1546 14.4131 70.3985 14.9716 70.7057 15.7839V15.7839ZM69.3669 12.5351C69.3669 12.0666 69.0621 11.8323 68.4529 11.8323C68.2292 11.8323 68.0314 11.8487 67.8602 11.8816C67.8865 12.2465 67.8995 12.7221 67.8995 13.3083C68.0304 13.3132 68.1411 13.3152 68.2315 13.3152C68.9883 13.3155 69.3669 13.0555 69.3669 12.5351V12.5351ZM75.8234 13.4003C75.8234 14.1228 75.5998 14.7221 75.1521 15.1977C74.7044 15.6731 74.151 15.9111 73.4919 15.9111C72.8634 15.9111 72.3372 15.6928 71.9138 15.2559C71.49 14.8194 71.2783 14.2642 71.2783 13.5913C71.2783 12.8687 71.502 12.2694 71.9497 11.7938C72.3971 11.3184 72.9505 11.0804 73.6099 11.0804C74.2384 11.0804 74.7642 11.2981 75.188 11.7336C75.6117 12.1692 75.8234 12.7244 75.8234 13.4003V13.4003ZM74.8383 13.5025C74.8383 13.0104 74.711 12.6114 74.4564 12.3053C74.2015 11.9993 73.8874 11.8464 73.5138 11.8464C73.1662 11.8464 72.871 12.0006 72.6284 12.3089C72.3858 12.6173 72.2638 13.0068 72.2638 13.4779C72.2638 13.9674 72.3918 14.3658 72.6477 14.6732C72.9036 14.9805 73.217 15.134 73.5886 15.134C73.9359 15.134 74.2314 14.9792 74.474 14.6695C74.7167 14.3602 74.8383 13.9709 74.8383 13.5025V13.5025ZM77.8423 15.7839H76.8319C76.8628 15.0541 76.8784 14.2527 76.8784 13.3793C76.8784 12.52 76.8628 11.7889 76.8319 11.1863H77.8423C77.8114 11.7797 77.7957 12.5104 77.7957 13.3793C77.7957 14.2665 77.8114 15.0683 77.8423 15.7839ZM83.0173 13.326C83.0173 13.9946 82.8006 14.5785 82.3675 15.0775C81.9341 15.5768 81.3272 15.826 80.5464 15.826C80.1941 15.826 79.7085 15.8118 79.0896 15.7836C79.1206 15.0726 79.1362 14.2708 79.1362 13.379C79.1362 12.5223 79.1206 11.7912 79.0896 11.186H79.7145C79.8169 11.186 79.9691 11.1824 80.1715 11.1755C80.3736 11.1686 80.5059 11.165 80.5677 11.165C81.4269 11.165 82.0498 11.377 82.4369 11.8007C82.8238 12.2244 83.0173 12.7327 83.0173 13.326V13.326ZM82.0428 13.4778C82.0428 13.0258 81.9095 12.6452 81.6429 12.3352C81.3763 12.0259 80.9692 11.8711 80.4218 11.8711C80.3194 11.8711 80.1791 11.8816 80.0003 11.9029C80.0239 12.374 80.0359 12.8658 80.0359 13.3789C80.0359 13.9417 80.0478 14.4996 80.0714 15.0528C80.2242 15.0832 80.3796 15.0987 80.5354 15.0988C81.0472 15.0988 81.4262 14.9414 81.6724 14.6271C81.9188 14.3128 82.0428 13.9298 82.0428 13.4778ZM89.8827 15.7839H88.74C88.74 15.6284 88.6316 15.1882 88.4146 14.4631H86.765C86.5414 15.1764 86.4293 15.6165 86.4293 15.7839H85.3551C85.3551 15.6922 85.633 14.9387 86.1887 13.5239C86.7444 12.1091 87.0223 11.3296 87.0223 11.1863H88.372C88.372 11.3204 88.624 12.0883 89.1272 13.4904C89.6304 14.8924 89.8827 15.6567 89.8827 15.7839ZM88.2331 13.7885C87.826 12.5739 87.6222 11.9171 87.6222 11.8181H87.565C87.565 11.9098 87.3546 12.5666 86.9336 13.7885H88.2331V13.7885ZM94.0472 12.3901C94.0472 12.9529 93.8358 13.3684 93.4134 13.6367C92.991 13.9049 92.4728 14.0393 91.8585 14.0393C91.7466 14.0393 91.6671 14.037 91.6193 14.0324C91.6193 14.4752 91.6322 15.0587 91.6585 15.7839H90.655C90.6859 15.1038 90.7016 14.302 90.7016 13.3793C90.7016 12.5318 90.686 11.8007 90.655 11.1863H91.2762C91.3643 11.1863 91.5331 11.1827 91.7831 11.1758C92.0331 11.1689 92.2494 11.1653 92.4329 11.1653C92.8849 11.1653 93.2671 11.2665 93.5789 11.469C93.8907 11.6715 94.0472 11.9782 94.0472 12.3901V12.3901ZM93.1262 12.5844C93.1262 12.0808 92.7882 11.8287 92.1122 11.8287C91.943 11.8287 91.7645 11.8464 91.5767 11.8816C91.603 12.3267 91.616 12.8303 91.616 13.3931C91.6754 13.398 91.7446 13.4 91.823 13.4C92.6918 13.4003 93.1262 13.1284 93.1262 12.5844V12.5844ZM98.3295 12.3901C98.3295 12.9529 98.1181 13.3684 97.696 13.6367C97.2735 13.9049 96.7551 14.0393 96.1409 14.0393C96.0288 14.0393 95.9494 14.037 95.9015 14.0324C95.9015 14.4752 95.9145 15.0587 95.9407 15.7839H94.9373C94.9682 15.1038 94.9839 14.302 94.9839 13.3793C94.9839 12.5318 94.9683 11.8007 94.9373 11.1863H95.5585C95.6466 11.1863 95.8154 11.1827 96.0654 11.1758C96.3153 11.1689 96.5317 11.1653 96.7152 11.1653C97.1672 11.1653 97.5494 11.2665 97.8612 11.469C98.1729 11.6715 98.3295 11.9782 98.3295 12.3901V12.3901ZM97.4085 12.5844C97.4085 12.0808 97.0705 11.8287 96.3945 11.8287C96.2253 11.8287 96.0468 11.8464 95.859 11.8816C95.8852 12.3267 95.8982 12.8303 95.8982 13.3931C95.9577 13.398 96.0269 13.4 96.1053 13.4C96.9741 13.4003 97.4085 13.1284 97.4085 12.5844V12.5844ZM105.331 13.4003C105.331 14.1228 105.107 14.7221 104.659 15.1977C104.212 15.6734 103.658 15.9111 102.999 15.9111C102.371 15.9111 101.845 15.6928 101.421 15.2559C100.998 14.8194 100.786 14.2642 100.786 13.5913C100.786 12.8687 101.009 12.2694 101.457 11.7938C101.905 11.3181 102.458 11.0804 103.117 11.0804C103.746 11.0804 104.272 11.2981 104.695 11.7336C105.119 12.1692 105.331 12.7244 105.331 13.4003V13.4003ZM104.345 13.5025C104.345 13.0104 104.218 12.6114 103.963 12.3053C103.709 11.9993 103.394 11.8464 103.021 11.8464C102.673 11.8464 102.378 12.0006 102.135 12.3089C101.893 12.6173 101.771 13.0068 101.771 13.4779C101.771 13.9674 101.899 14.3658 102.155 14.6732C102.411 14.9805 102.724 15.134 103.096 15.134C103.443 15.134 103.738 14.9792 103.981 14.6695C104.224 14.3602 104.345 13.9709 104.345 13.5025V13.5025ZM110.17 15.7839H109.288C109.288 15.6873 108.961 15.1777 108.307 14.255C107.621 13.2826 107.231 12.6179 107.136 12.26H107.078C107.138 12.7754 107.168 13.2415 107.168 13.6584C107.168 14.2399 107.184 14.9486 107.218 15.7843H106.339C106.375 15.0545 106.393 14.253 106.393 13.3796C106.393 12.5204 106.375 11.7892 106.339 11.1867H107.4C107.4 11.3116 107.694 11.8096 108.281 12.6804C108.907 13.6055 109.267 14.233 109.36 14.5627H109.413C109.356 14.0377 109.327 13.567 109.327 13.1502C109.327 12.5125 109.311 11.8576 109.277 11.1867H110.17C110.137 11.7705 110.12 12.5016 110.12 13.3796C110.12 14.2642 110.137 15.0656 110.17 15.7839V15.7839Z"
      fill="#F9F9FA"/>
  </g>
  <defs>
    <linearGradient gradientUnits="userSpaceOnUse" id="paint0_linear" x1="22.2462" x2="22.2462" y1="10.5888"
                    y2="47.8348">
      <stop stop-color="#257CB0"/>
      <stop offset="0.286" stop-color="#4A93B5"/>
      <stop offset="0.767" stop-color="#78BCBB"/>
      <stop offset="1" stop-color="#89CFBD"/>
    </linearGradient>
    <linearGradient gradientUnits="userSpaceOnUse" id="paint1_linear" x1="12.7518" x2="36.8416" y1="19.8323"
                    y2="19.8323">
      <stop stop-color="#52C1AD"/>
      <stop offset="1" stop-color="#DEE89A"/>
    </linearGradient>
    <linearGradient gradientUnits="userSpaceOnUse" id="paint2_linear" x1="24.7962" x2="24.7962" y1="29.212"
                    y2="47.9702">
      <stop stop-color="#EC413D"/>
      <stop offset="0.167" stop-color="#DA4452"/>
      <stop offset="0.575" stop-color="#B0487A"/>
      <stop offset="0.862" stop-color="#954A92"/>
      <stop offset="1" stop-color="#8A4A9D"/>
    </linearGradient>
    <linearGradient gradientUnits="userSpaceOnUse" id="paint3_linear" x1="38.6711" x2="38.6711" y1="24.2096"
                    y2="34.2132">
      <stop stop-color="#F58879"/>
      <stop offset="0.119" stop-color="#F69079"/>
      <stop offset="0.713" stop-color="#FCB877"/>
      <stop offset="1" stop-color="#FEC874"/>
    </linearGradient>
    <clipPath id="clip0">
      <rect fill="white" height="55" width="170"/>
    </clipPath>
  </defs>
</svg>
